<mxfile host="app.diagrams.net" modified="2021-06-15T13:49:21.118Z" agent="5.0 (X11)" etag="ZJSHZDSDzyoGlqKJUAg1" version="14.7.8" type="github">
  <diagram id="9qWIelaiJ4xFkZr7DGf-" name="Page-1">
    <mxGraphModel dx="1422" dy="757" grid="1" gridSize="10" guides="1" tooltips="1" connect="1" arrows="1" fold="1" page="1" pageScale="1" pageWidth="1654" pageHeight="1169" math="0" shadow="0">
      <root>
        <mxCell id="0" />
        <mxCell id="1" parent="0" />
        <mxCell id="l4otnNqnhNK3BgZwbTVl-9" style="edgeStyle=orthogonalEdgeStyle;rounded=0;orthogonalLoop=1;jettySize=auto;html=1;exitX=0.25;exitY=1;exitDx=0;exitDy=0;entryX=0.5;entryY=0;entryDx=0;entryDy=0;" parent="1" source="l4otnNqnhNK3BgZwbTVl-1" target="l4otnNqnhNK3BgZwbTVl-5" edge="1">
          <mxGeometry relative="1" as="geometry" />
        </mxCell>
        <mxCell id="l4otnNqnhNK3BgZwbTVl-10" style="edgeStyle=orthogonalEdgeStyle;rounded=0;orthogonalLoop=1;jettySize=auto;html=1;exitX=0.75;exitY=1;exitDx=0;exitDy=0;entryX=0.5;entryY=0;entryDx=0;entryDy=0;" parent="1" source="l4otnNqnhNK3BgZwbTVl-1" target="l4otnNqnhNK3BgZwbTVl-3" edge="1">
          <mxGeometry relative="1" as="geometry" />
        </mxCell>
        <mxCell id="l4otnNqnhNK3BgZwbTVl-1" value="index/deciding page" style="whiteSpace=wrap;html=1;aspect=fixed;" parent="1" vertex="1">
          <mxGeometry x="560" y="90" width="90" height="90" as="geometry" />
        </mxCell>
        <mxCell id="l4otnNqnhNK3BgZwbTVl-2" value="/" style="text;html=1;align=center;verticalAlign=middle;resizable=0;points=[];autosize=1;strokeColor=none;fontSize=16;" parent="1" vertex="1">
          <mxGeometry x="595" y="60" width="20" height="20" as="geometry" />
        </mxCell>
        <mxCell id="l4otnNqnhNK3BgZwbTVl-19" style="edgeStyle=orthogonalEdgeStyle;rounded=0;orthogonalLoop=1;jettySize=auto;html=1;exitX=1;exitY=0.75;exitDx=0;exitDy=0;entryX=0.5;entryY=0;entryDx=0;entryDy=0;fontSize=16;" parent="1" source="l4otnNqnhNK3BgZwbTVl-3" target="l4otnNqnhNK3BgZwbTVl-12" edge="1">
          <mxGeometry relative="1" as="geometry" />
        </mxCell>
        <mxCell id="l4otnNqnhNK3BgZwbTVl-20" style="edgeStyle=orthogonalEdgeStyle;rounded=0;orthogonalLoop=1;jettySize=auto;html=1;exitX=0.75;exitY=1;exitDx=0;exitDy=0;fontSize=16;" parent="1" source="l4otnNqnhNK3BgZwbTVl-3" target="l4otnNqnhNK3BgZwbTVl-11" edge="1">
          <mxGeometry relative="1" as="geometry">
            <Array as="points">
              <mxPoint x="848" y="370" />
              <mxPoint x="1005" y="370" />
            </Array>
          </mxGeometry>
        </mxCell>
        <mxCell id="l4otnNqnhNK3BgZwbTVl-21" style="edgeStyle=orthogonalEdgeStyle;rounded=0;orthogonalLoop=1;jettySize=auto;html=1;exitX=0.5;exitY=1;exitDx=0;exitDy=0;fontSize=16;" parent="1" source="l4otnNqnhNK3BgZwbTVl-3" target="l4otnNqnhNK3BgZwbTVl-13" edge="1">
          <mxGeometry relative="1" as="geometry" />
        </mxCell>
        <mxCell id="l4otnNqnhNK3BgZwbTVl-22" style="edgeStyle=orthogonalEdgeStyle;rounded=0;orthogonalLoop=1;jettySize=auto;html=1;exitX=0.25;exitY=1;exitDx=0;exitDy=0;fontSize=16;" parent="1" source="l4otnNqnhNK3BgZwbTVl-3" target="l4otnNqnhNK3BgZwbTVl-14" edge="1">
          <mxGeometry relative="1" as="geometry" />
        </mxCell>
        <mxCell id="l4otnNqnhNK3BgZwbTVl-23" style="edgeStyle=orthogonalEdgeStyle;rounded=0;orthogonalLoop=1;jettySize=auto;html=1;exitX=0;exitY=0.5;exitDx=0;exitDy=0;entryX=0.75;entryY=0;entryDx=0;entryDy=0;fontSize=16;" parent="1" source="l4otnNqnhNK3BgZwbTVl-3" target="l4otnNqnhNK3BgZwbTVl-15" edge="1">
          <mxGeometry relative="1" as="geometry" />
        </mxCell>
        <mxCell id="l4otnNqnhNK3BgZwbTVl-3" value="Home page" style="whiteSpace=wrap;html=1;aspect=fixed;" parent="1" vertex="1">
          <mxGeometry x="780" y="260" width="90" height="90" as="geometry" />
        </mxCell>
        <mxCell id="l4otnNqnhNK3BgZwbTVl-24" style="edgeStyle=orthogonalEdgeStyle;rounded=0;orthogonalLoop=1;jettySize=auto;html=1;exitX=0;exitY=0.667;exitDx=0;exitDy=0;entryX=0.5;entryY=0;entryDx=0;entryDy=0;fontSize=16;exitPerimeter=0;" parent="1" source="l4otnNqnhNK3BgZwbTVl-5" target="l4otnNqnhNK3BgZwbTVl-16" edge="1">
          <mxGeometry relative="1" as="geometry">
            <Array as="points">
              <mxPoint x="85" y="320" />
            </Array>
          </mxGeometry>
        </mxCell>
        <mxCell id="l4otnNqnhNK3BgZwbTVl-25" style="edgeStyle=orthogonalEdgeStyle;rounded=0;orthogonalLoop=1;jettySize=auto;html=1;exitX=0.25;exitY=1;exitDx=0;exitDy=0;fontSize=16;" parent="1" source="l4otnNqnhNK3BgZwbTVl-5" target="l4otnNqnhNK3BgZwbTVl-17" edge="1">
          <mxGeometry relative="1" as="geometry" />
        </mxCell>
        <mxCell id="l4otnNqnhNK3BgZwbTVl-26" style="edgeStyle=orthogonalEdgeStyle;rounded=0;orthogonalLoop=1;jettySize=auto;html=1;exitX=0.75;exitY=1;exitDx=0;exitDy=0;entryX=0.25;entryY=0;entryDx=0;entryDy=0;fontSize=16;" parent="1" source="l4otnNqnhNK3BgZwbTVl-5" target="l4otnNqnhNK3BgZwbTVl-15" edge="1">
          <mxGeometry relative="1" as="geometry" />
        </mxCell>
        <mxCell id="l4otnNqnhNK3BgZwbTVl-5" value="User Home page" style="whiteSpace=wrap;html=1;aspect=fixed;" parent="1" vertex="1">
          <mxGeometry x="360" y="260" width="90" height="90" as="geometry" />
        </mxCell>
        <mxCell id="l4otnNqnhNK3BgZwbTVl-11" value="Sign-up page" style="whiteSpace=wrap;html=1;aspect=fixed;" parent="1" vertex="1">
          <mxGeometry x="960" y="480" width="90" height="90" as="geometry" />
        </mxCell>
        <mxCell id="l4otnNqnhNK3BgZwbTVl-35" style="edgeStyle=orthogonalEdgeStyle;rounded=0;orthogonalLoop=1;jettySize=auto;html=1;exitX=1;exitY=0.5;exitDx=0;exitDy=0;fontSize=16;entryX=0.75;entryY=0;entryDx=0;entryDy=0;" parent="1" source="l4otnNqnhNK3BgZwbTVl-12" target="l4otnNqnhNK3BgZwbTVl-5" edge="1">
          <mxGeometry relative="1" as="geometry">
            <mxPoint x="470" y="190" as="targetPoint" />
          </mxGeometry>
        </mxCell>
        <mxCell id="l4otnNqnhNK3BgZwbTVl-12" value="Login page" style="whiteSpace=wrap;html=1;aspect=fixed;" parent="1" vertex="1">
          <mxGeometry x="1070" y="480" width="90" height="90" as="geometry" />
        </mxCell>
        <mxCell id="l4otnNqnhNK3BgZwbTVl-33" style="edgeStyle=orthogonalEdgeStyle;rounded=0;orthogonalLoop=1;jettySize=auto;html=1;exitX=0.75;exitY=1;exitDx=0;exitDy=0;entryX=0.5;entryY=0;entryDx=0;entryDy=0;fontSize=16;" parent="1" source="l4otnNqnhNK3BgZwbTVl-13" target="l4otnNqnhNK3BgZwbTVl-32" edge="1">
          <mxGeometry relative="1" as="geometry">
            <Array as="points">
              <mxPoint x="908" y="600" />
              <mxPoint x="1195" y="600" />
            </Array>
          </mxGeometry>
        </mxCell>
        <mxCell id="l4otnNqnhNK3BgZwbTVl-34" style="edgeStyle=orthogonalEdgeStyle;rounded=0;orthogonalLoop=1;jettySize=auto;html=1;exitX=0.25;exitY=1;exitDx=0;exitDy=0;entryX=0.5;entryY=0;entryDx=0;entryDy=0;fontSize=16;" parent="1" source="l4otnNqnhNK3BgZwbTVl-13" target="l4otnNqnhNK3BgZwbTVl-31" edge="1">
          <mxGeometry relative="1" as="geometry" />
        </mxCell>
        <mxCell id="l4otnNqnhNK3BgZwbTVl-13" value="Business page" style="whiteSpace=wrap;html=1;aspect=fixed;" parent="1" vertex="1">
          <mxGeometry x="840" y="480" width="90" height="90" as="geometry" />
        </mxCell>
        <mxCell id="l4otnNqnhNK3BgZwbTVl-14" value="Aboutus page" style="whiteSpace=wrap;html=1;aspect=fixed;" parent="1" vertex="1">
          <mxGeometry x="730" y="480" width="90" height="90" as="geometry" />
        </mxCell>
        <mxCell id="l4otnNqnhNK3BgZwbTVl-28" style="edgeStyle=orthogonalEdgeStyle;rounded=0;orthogonalLoop=1;jettySize=auto;html=1;exitX=0.5;exitY=1;exitDx=0;exitDy=0;entryX=0.5;entryY=0;entryDx=0;entryDy=0;fontSize=16;" parent="1" source="l4otnNqnhNK3BgZwbTVl-15" target="l4otnNqnhNK3BgZwbTVl-27" edge="1">
          <mxGeometry relative="1" as="geometry" />
        </mxCell>
        <mxCell id="l4otnNqnhNK3BgZwbTVl-15" value="Search page" style="whiteSpace=wrap;html=1;aspect=fixed;" parent="1" vertex="1">
          <mxGeometry x="615" y="480" width="90" height="90" as="geometry" />
        </mxCell>
        <mxCell id="l4otnNqnhNK3BgZwbTVl-16" value="Logout" style="whiteSpace=wrap;html=1;aspect=fixed;" parent="1" vertex="1">
          <mxGeometry x="40" y="480" width="90" height="90" as="geometry" />
        </mxCell>
        <mxCell id="31PJm1eeyKelROdlpBMP-1" style="edgeStyle=orthogonalEdgeStyle;rounded=0;orthogonalLoop=1;jettySize=auto;html=1;exitX=0.25;exitY=1;exitDx=0;exitDy=0;fontSize=16;" edge="1" parent="1" source="l4otnNqnhNK3BgZwbTVl-17">
          <mxGeometry relative="1" as="geometry">
            <mxPoint x="233" y="660" as="targetPoint" />
          </mxGeometry>
        </mxCell>
        <mxCell id="31PJm1eeyKelROdlpBMP-3" style="edgeStyle=orthogonalEdgeStyle;rounded=0;orthogonalLoop=1;jettySize=auto;html=1;exitX=1;exitY=0.5;exitDx=0;exitDy=0;fontSize=16;" edge="1" parent="1" source="l4otnNqnhNK3BgZwbTVl-17">
          <mxGeometry relative="1" as="geometry">
            <mxPoint x="380" y="660" as="targetPoint" />
          </mxGeometry>
        </mxCell>
        <mxCell id="l4otnNqnhNK3BgZwbTVl-17" value="Account page" style="whiteSpace=wrap;html=1;aspect=fixed;" parent="1" vertex="1">
          <mxGeometry x="210" y="470" width="90" height="90" as="geometry" />
        </mxCell>
        <mxCell id="l4otnNqnhNK3BgZwbTVl-29" style="edgeStyle=orthogonalEdgeStyle;rounded=0;orthogonalLoop=1;jettySize=auto;html=1;fontSize=16;" parent="1" source="l4otnNqnhNK3BgZwbTVl-27" edge="1">
          <mxGeometry relative="1" as="geometry">
            <mxPoint x="585" y="840" as="targetPoint" />
          </mxGeometry>
        </mxCell>
        <mxCell id="l4otnNqnhNK3BgZwbTVl-27" value="Booking page" style="whiteSpace=wrap;html=1;aspect=fixed;" parent="1" vertex="1">
          <mxGeometry x="540" y="670" width="90" height="90" as="geometry" />
        </mxCell>
        <mxCell id="31PJm1eeyKelROdlpBMP-5" style="edgeStyle=orthogonalEdgeStyle;rounded=0;orthogonalLoop=1;jettySize=auto;html=1;fontSize=16;" edge="1" parent="1" source="l4otnNqnhNK3BgZwbTVl-30">
          <mxGeometry relative="1" as="geometry">
            <mxPoint x="585" y="1000" as="targetPoint" />
          </mxGeometry>
        </mxCell>
        <mxCell id="l4otnNqnhNK3BgZwbTVl-30" value="Report generation page" style="whiteSpace=wrap;html=1;aspect=fixed;" parent="1" vertex="1">
          <mxGeometry x="540" y="840" width="90" height="90" as="geometry" />
        </mxCell>
        <mxCell id="l4otnNqnhNK3BgZwbTVl-31" value="Sign-up page" style="whiteSpace=wrap;html=1;aspect=fixed;" parent="1" vertex="1">
          <mxGeometry x="890" y="690" width="90" height="90" as="geometry" />
        </mxCell>
        <mxCell id="l4otnNqnhNK3BgZwbTVl-37" style="edgeStyle=orthogonalEdgeStyle;rounded=0;orthogonalLoop=1;jettySize=auto;html=1;exitX=0.5;exitY=1;exitDx=0;exitDy=0;fontSize=16;" parent="1" source="l4otnNqnhNK3BgZwbTVl-32" target="l4otnNqnhNK3BgZwbTVl-36" edge="1">
          <mxGeometry relative="1" as="geometry" />
        </mxCell>
        <mxCell id="l4otnNqnhNK3BgZwbTVl-32" value="Login page" style="whiteSpace=wrap;html=1;aspect=fixed;" parent="1" vertex="1">
          <mxGeometry x="1150" y="680" width="90" height="90" as="geometry" />
        </mxCell>
        <mxCell id="l4otnNqnhNK3BgZwbTVl-38" style="edgeStyle=orthogonalEdgeStyle;rounded=0;orthogonalLoop=1;jettySize=auto;html=1;exitX=0.5;exitY=1;exitDx=0;exitDy=0;fontSize=16;" parent="1" source="l4otnNqnhNK3BgZwbTVl-36" edge="1">
          <mxGeometry relative="1" as="geometry">
            <mxPoint x="1195" y="1010" as="targetPoint" />
          </mxGeometry>
        </mxCell>
        <mxCell id="l4otnNqnhNK3BgZwbTVl-41" style="edgeStyle=orthogonalEdgeStyle;rounded=0;orthogonalLoop=1;jettySize=auto;html=1;exitX=1;exitY=0.5;exitDx=0;exitDy=0;fontSize=16;entryX=0.433;entryY=0.022;entryDx=0;entryDy=0;entryPerimeter=0;" parent="1" source="l4otnNqnhNK3BgZwbTVl-36" target="l4otnNqnhNK3BgZwbTVl-42" edge="1">
          <mxGeometry relative="1" as="geometry">
            <mxPoint x="1400" y="1000" as="targetPoint" />
          </mxGeometry>
        </mxCell>
        <mxCell id="l4otnNqnhNK3BgZwbTVl-36" value="Business account page" style="whiteSpace=wrap;html=1;aspect=fixed;" parent="1" vertex="1">
          <mxGeometry x="1150" y="860" width="90" height="90" as="geometry" />
        </mxCell>
        <mxCell id="l4otnNqnhNK3BgZwbTVl-39" value="Listing add/delete page" style="whiteSpace=wrap;html=1;aspect=fixed;" parent="1" vertex="1">
          <mxGeometry x="1150" y="1010" width="90" height="90" as="geometry" />
        </mxCell>
        <mxCell id="l4otnNqnhNK3BgZwbTVl-42" value="Payment recieve page" style="whiteSpace=wrap;html=1;aspect=fixed;" parent="1" vertex="1">
          <mxGeometry x="1360" y="1010" width="90" height="90" as="geometry" />
        </mxCell>
        <mxCell id="31PJm1eeyKelROdlpBMP-2" value="Booked orders/history page" style="whiteSpace=wrap;html=1;aspect=fixed;" vertex="1" parent="1">
          <mxGeometry x="190" y="660" width="90" height="90" as="geometry" />
        </mxCell>
        <mxCell id="31PJm1eeyKelROdlpBMP-4" value="Edit profile page" style="whiteSpace=wrap;html=1;aspect=fixed;" vertex="1" parent="1">
          <mxGeometry x="330" y="660" width="90" height="90" as="geometry" />
        </mxCell>
        <mxCell id="31PJm1eeyKelROdlpBMP-7" value="Payment page" style="whiteSpace=wrap;html=1;aspect=fixed;" vertex="1" parent="1">
          <mxGeometry x="540" y="1000" width="90" height="90" as="geometry" />
        </mxCell>
      </root>
    </mxGraphModel>
  </diagram>
</mxfile>
